<svg width="30" height="30" viewBox="0 0 30 30" fill="none" xmlns="http://www.w3.org/2000/svg">
<circle cx="15" cy="15" r="14.5" stroke="#45A6AF"/>
<path d="M11.0681 10.7948C11.1474 10.7022 11.2458 10.628 11.3565 10.5771C11.4671 10.5262 11.5875 10.4999 11.7094 10.5H12.75C12.8992 10.5 13.0423 10.4407 13.1477 10.3352C13.2532 10.2298 13.3125 10.0867 13.3125 9.9375C13.3125 9.78832 13.2532 9.64524 13.1477 9.53975C13.0423 9.43426 12.8992 9.375 12.75 9.375H11.7094C11.4253 9.37494 11.1446 9.43634 10.8866 9.55499C10.6285 9.67364 10.3991 9.84673 10.2143 10.0624L7.59863 13.1139C7.29287 13.4708 7.12487 13.9253 7.125 14.3953V16.9688C7.125 17.6401 7.39168 18.2839 7.86639 18.7586C8.34109 19.2333 8.98492 19.5 9.65625 19.5H11.9062C12.5776 19.5 13.2214 19.2333 13.6961 18.7586C14.1708 18.2839 14.4375 17.6401 14.4375 16.9688V15.5625H15.5625V16.9688C15.5625 17.6401 15.8292 18.2839 16.3039 18.7586C16.7786 19.2333 17.4224 19.5 18.0938 19.5H20.3438C21.0151 19.5 21.6589 19.2333 22.1336 18.7586C22.6083 18.2839 22.875 17.6401 22.875 16.9688V14.3953C22.875 13.9253 22.7068 13.4708 22.4008 13.1139L19.7852 10.0624C19.6004 9.8468 19.3711 9.67375 19.1131 9.5551C18.8552 9.43646 18.5746 9.37502 18.2906 9.375H17.25C17.1008 9.375 16.9577 9.43426 16.8523 9.53975C16.7468 9.64524 16.6875 9.78832 16.6875 9.9375C16.6875 10.0867 16.7468 10.2298 16.8523 10.3352C16.9577 10.4407 17.1008 10.5 17.25 10.5H18.2906C18.4124 10.5 18.5326 10.5263 18.6432 10.5772C18.7538 10.6281 18.8521 10.7023 18.9313 10.7948L20.6076 12.75H17.5312C17.0578 12.75 16.6002 12.9206 16.2422 13.2305C15.8843 13.5404 15.6499 13.9689 15.5822 14.4375H14.4178C14.3501 13.9689 14.1157 13.5404 13.7578 13.2305C13.3998 12.9206 12.9422 12.75 12.4688 12.75H9.39244L11.0681 10.7948Z" fill="#45A6AF"/>
</svg>
