<svg width="16" height="16" viewBox="0 0 16 16" fill="none" xmlns="http://www.w3.org/2000/svg">
<path d="M7.92505 1.8881C9.913 1.8881 10.1841 1.8881 10.9973 1.8881C11.7202 1.8881 12.0817 2.0709 12.3528 2.1623C12.7142 2.3451 12.9853 2.4365 13.2564 2.7107C13.5275 2.98491 13.7082 3.25911 13.7985 3.62471C13.8889 3.89891 13.9793 4.26451 14.0696 4.99572C14.0696 5.81832 14.0696 6.00112 14.0696 8.10334C14.0696 10.2056 14.0696 10.3884 14.0696 11.211C14.0696 11.9422 13.8889 12.3078 13.7985 12.582C13.6178 12.9476 13.5275 13.2218 13.2564 13.496C12.9853 13.7702 12.7142 13.953 12.3528 14.0444C12.0817 14.1358 11.7202 14.2272 10.9973 14.3186C10.1841 14.3186 10.0034 14.3186 7.92505 14.3186C5.84674 14.3186 5.66601 14.3186 4.85276 14.3186C4.12987 14.3186 3.76842 14.1358 3.49734 14.0444C3.13589 13.8616 2.86481 13.7702 2.59372 13.496C2.32264 13.2218 2.14192 12.9476 2.05156 12.582C1.96119 12.3078 1.87083 11.9422 1.78047 11.211C1.78047 10.3884 1.78047 10.2056 1.78047 8.10334C1.78047 6.00112 1.78047 5.81832 1.78047 4.99572C1.78047 4.26451 1.96119 3.89891 2.05156 3.62471C2.23228 3.25911 2.32264 2.98491 2.59372 2.7107C2.86481 2.4365 3.13589 2.2537 3.49734 2.1623C3.76842 2.0709 4.12987 1.9795 4.85276 1.8881C5.66601 1.8881 5.9371 1.8881 7.92505 1.8881ZM7.92505 0.51709C5.84674 0.51709 5.66601 0.51709 4.85276 0.51709C4.03951 0.51709 3.49734 0.699891 3.04553 0.882693C2.59372 1.06549 2.14192 1.3397 1.69011 1.7967C1.2383 2.2537 1.05758 2.6193 0.786495 3.16771C0.605772 3.62471 0.51541 4.17311 0.425049 4.99572C0.425049 5.81832 0.425049 6.09252 0.425049 8.10334C0.425049 10.2056 0.425049 10.3884 0.425049 11.211C0.425049 12.0336 0.605772 12.582 0.786495 13.039C0.967218 13.496 1.2383 13.953 1.69011 14.41C2.14192 14.867 2.50336 15.0498 3.04553 15.324C3.49734 15.5068 4.03951 15.5982 4.85276 15.6896C5.66601 15.6896 5.9371 15.6896 7.92505 15.6896C9.913 15.6896 10.1841 15.6896 10.9973 15.6896C11.8106 15.6896 12.3528 15.5068 12.8046 15.324C13.2564 15.1412 13.7082 14.867 14.16 14.41C14.6118 13.953 14.7925 13.5874 15.0636 13.039C15.2443 12.582 15.3347 12.0336 15.425 11.211C15.425 10.3884 15.425 10.1141 15.425 8.10334C15.425 6.09252 15.425 5.81832 15.425 4.99572C15.425 4.17311 15.2443 3.62471 15.0636 3.16771C14.8829 2.7107 14.6118 2.2537 14.16 1.7967C13.7082 1.3397 13.3467 1.15689 12.8046 0.882693C12.3528 0.699891 11.8106 0.60849 10.9973 0.51709C10.1841 0.51709 10.0034 0.51709 7.92505 0.51709Z" fill="#055D65"/>
<path d="M7.92505 4.17311C5.75637 4.17311 4.03951 5.90972 4.03951 8.10334C4.03951 10.297 5.75637 12.0336 7.92505 12.0336C10.0937 12.0336 11.8106 10.297 11.8106 8.10334C11.8106 5.90972 10.0937 4.17311 7.92505 4.17311ZM7.92505 10.6626C6.56963 10.6626 5.39493 9.56575 5.39493 8.10334C5.39493 6.73233 6.47927 5.54412 7.92505 5.54412C9.28047 5.54412 10.4552 6.64093 10.4552 8.10334C10.4552 9.47435 9.28047 10.6626 7.92505 10.6626Z" fill="#055D65"/>
<path d="M11.901 4.99572C12.4 4.99572 12.8046 4.5865 12.8046 4.08171C12.8046 3.57692 12.4 3.16771 11.901 3.16771C11.4019 3.16771 10.9973 3.57692 10.9973 4.08171C10.9973 4.5865 11.4019 4.99572 11.901 4.99572Z" fill="#055D65"/>
</svg>
