<svg width="11" height="18" viewBox="0 0 11 18" fill="none" xmlns="http://www.w3.org/2000/svg">
<path d="M10.2592 11.2224C10.6658 10.8243 10.7239 10.2556 10.3754 9.68695C10.0849 9.23202 9.56204 9.00455 8.98109 9.11828C8.74871 9.17515 8.51633 9.28889 8.28395 9.45949C6.48301 10.6537 4.04303 10.5968 2.24209 9.40262C2.12591 9.34575 2.00971 9.28888 1.89352 9.23201C1.25448 8.94768 0.615444 9.06142 0.266876 9.63009C-0.139788 10.1988 -0.0817 10.8243 0.441153 11.3361C0.557343 11.4498 0.673532 11.5067 0.731627 11.6204L0.789725 11.6773C1.60305 12.3028 2.59067 12.7009 3.86875 12.8715L3.11352 13.6108C2.47447 14.2363 1.77734 14.9187 1.1383 15.5443C0.964013 15.7149 0.731627 15.9992 0.731627 16.3973C0.731627 16.9091 1.02211 17.4209 1.54496 17.6484C1.71924 17.7621 1.89352 17.7621 2.06781 17.7621C2.35828 17.7621 2.70685 17.6484 2.93923 17.364C3.81065 16.511 4.50779 15.8286 5.20493 15.1462C5.26303 15.0893 5.26302 15.0893 5.26302 15.0893C5.26302 15.0893 5.32112 15.0893 5.32112 15.1462C5.78588 15.658 6.30873 16.113 6.77349 16.6248C7.00587 16.8522 7.23825 17.0797 7.47062 17.3072C7.7611 17.5915 7.99348 17.7052 8.34205 17.7052C8.8649 17.7621 9.44585 17.4209 9.67823 16.9091C9.91061 16.4542 9.79442 15.8855 9.38775 15.5443C8.80681 14.9756 8.22586 14.3501 7.58681 13.7814L6.5992 12.8147C7.12206 12.7578 7.70301 12.6441 8.22586 12.4166C9.09728 12.1322 9.73632 11.7342 10.2592 11.2224Z" fill="#055D65"/>
<path d="M5.26302 9.63008C7.7611 9.63008 9.79442 7.69659 9.79442 5.2513C9.79442 4.05709 9.32966 2.91975 8.45823 2.06674C7.58681 1.21373 6.48302 0.758789 5.32112 0.758789C2.82304 0.758789 0.847819 2.74914 0.789725 5.13757C0.789725 6.33178 1.25448 7.41226 2.12591 8.26527C2.93923 9.17514 4.04303 9.63008 5.26302 9.63008ZM3.98494 3.94336C4.33351 3.60216 4.79826 3.43155 5.26302 3.43155C6.30873 3.43155 7.06396 4.22769 7.06396 5.19444C7.06396 6.21805 6.25063 6.95732 5.26302 6.95732C4.21732 6.95732 3.46209 6.16118 3.46209 5.19444C3.46209 4.7395 3.63637 4.28456 3.98494 3.94336Z" fill="#055D65"/>
<path d="M10.2592 11.2224C10.6658 10.8243 10.7239 10.2556 10.3754 9.68695C10.0849 9.23202 9.56204 9.00455 8.98109 9.11828C8.74871 9.17515 8.51633 9.28889 8.28395 9.45949C6.48301 10.6537 4.04303 10.5968 2.24209 9.40262C2.12591 9.34575 2.00971 9.28888 1.89352 9.23201C1.25448 8.94768 0.615444 9.06142 0.266876 9.63009C-0.139788 10.1988 -0.0817 10.8243 0.441153 11.3361C0.557343 11.4498 0.673532 11.5067 0.731627 11.6204L0.789725 11.6773C1.60305 12.3028 2.59067 12.7009 3.86875 12.8715L3.11352 13.6108C2.47447 14.2363 1.77734 14.9187 1.1383 15.5443C0.964013 15.7149 0.731627 15.9992 0.731627 16.3973C0.731627 16.9091 1.02211 17.4209 1.54496 17.6484C1.71924 17.7621 1.89352 17.7621 2.06781 17.7621C2.35828 17.7621 2.70685 17.6484 2.93923 17.364C3.81065 16.511 4.50779 15.8286 5.20493 15.1462C5.26303 15.0893 5.26302 15.0893 5.26302 15.0893C5.26302 15.0893 5.32112 15.0893 5.32112 15.1462C5.78588 15.658 6.30873 16.113 6.77349 16.6248C7.00587 16.8522 7.23825 17.0797 7.47062 17.3072C7.7611 17.5915 7.99348 17.7052 8.34205 17.7052C8.8649 17.7621 9.44585 17.4209 9.67823 16.9091C9.91061 16.4542 9.79442 15.8855 9.38775 15.5443C8.80681 14.9756 8.22586 14.3501 7.58681 13.7814L6.5992 12.8147C7.12206 12.7578 7.70301 12.6441 8.22586 12.4166C9.09728 12.1322 9.73632 11.7342 10.2592 11.2224Z" fill="#055D65"/>
</svg>
