<svg width="15" height="13" viewBox="0 0 15 13" fill="none" xmlns="http://www.w3.org/2000/svg">
<path d="M14.875 2.23435C14.35 2.46194 13.7501 2.61367 13.1501 2.68953C13.7501 2.31022 14.275 1.70332 14.5 1.02056C13.9 1.39987 13.3 1.62746 12.55 1.77918C12.025 1.17228 11.2 0.792969 10.375 0.792969C8.72504 0.792969 7.37504 2.15849 7.37504 3.82747C7.37504 4.05505 7.37505 4.28264 7.45005 4.51022C4.97505 4.3585 2.72504 3.1447 1.22504 1.324C1.00004 1.77918 0.850044 2.31022 0.850044 2.84125C0.850044 3.90333 1.37505 4.81368 2.20005 5.34472C1.67505 5.34472 1.22504 5.19299 0.850044 4.9654C0.850044 6.40679 1.90004 7.69645 3.25004 7.92404C3.02504 7.9999 2.72505 7.9999 2.42505 7.9999C2.20005 7.9999 2.05005 7.9999 1.82505 7.92404C2.20005 9.13783 3.32505 10.0482 4.67505 10.0482C3.62505 10.8827 2.35005 11.3378 0.925049 11.3378C0.700049 11.3378 0.475049 11.3379 0.175049 11.262C1.52505 12.0965 3.10005 12.6275 4.82505 12.6275C10.375 12.6275 13.375 7.9999 13.375 3.97919V3.59988C13.975 3.37229 14.5 2.84125 14.875 2.23435Z" fill="#055D65"/>
</svg>
