<svg width="18" height="12" viewBox="0 0 18 12" fill="none" xmlns="http://www.w3.org/2000/svg">
<path d="M9.66193 11.4137C4.02452 11.4137 0.809028 7.42695 0.675049 0.792969H3.49891C3.59166 5.66214 5.67349 7.72463 7.32246 8.14988V0.792969H9.98142V4.99236C11.6098 4.81163 13.3206 2.89798 13.8977 0.792969H16.5567C16.3392 1.88469 15.9057 2.91837 15.2833 3.82936C14.6608 4.74036 13.8628 5.50906 12.9393 6.08739C13.9702 6.61583 14.8808 7.3638 15.6109 8.28192C16.3411 9.20004 16.8742 10.2675 17.175 11.4137H14.2481C13.978 10.4181 13.4291 9.52687 12.6701 8.85171C11.9111 8.17654 10.9758 7.74749 9.98142 7.61831V11.4137H9.66193Z" fill="#055D65"/>
</svg>
